{"title":"Grand Hotel (Greta Garbo) (1932).avi","uid":4486985,"size":735116442,"categoryP":"video","categoryS":"movies","magnet":"?xt=urn:btih:24fb17fbac350f153caec4443fb67a3e71c3d22b&amp;dn=Grand+Hotel+%28Greta+Garbo%29+%281932%29.avi&amp;tr=udp%3A%2F%2Ftracker.openbittorrent.com%3A80&amp;tr=udp%3A%2F%2Fopen.demonii.com%3A1337&amp;tr=udp%3A%2F%2Ftracker.coppersurfer.tk%3A6969&amp;tr=udp%3A%2F%2Fexodus.desync.com%3A6969","seeders":1,"leechers":0,"uploader":"johnefp","files":-1,"time":1225814513,"description":"Berlin&amp;#039;s plushest, most expensive hotel is the setting where in the words of Dr. Otternschlag\n &lt;a href=&quot;\nhttp://www.imdb.com/title/tt0022958/&quot; rel=&quot;nofollow&quot; target=&quot;_NEW&quot;&gt;\nhttp://www.imdb.com/title/tt0022958/&lt;/a&gt;\n\nSUBS\n &lt;a href=&quot;\nhttp://www.opensubtitles.org/en/search/sublanguageid-all/idmovie-4764&quot; rel=&quot;nofollow&quot; target=&quot;_NEW&quot;&gt;\nhttp://www.opensubtitles.org/en/search/sublanguageid-all/idmovie-4764&lt;/a&gt;\n\nDirector:\nEdmund Goulding\n\nGreta Garbo\t ... \tGrusinskaya\n\n\tJohn Barrymore\t... \tBaron Felix von Geigern\n\n\tJoan Crawford\t... \tFlaemmchen\n\n\tWallace Beery\t... \tPreysing\n\n\tLionel Barrymore\t... \tOtto Kringelein\n\tLewis Stone\t... \tDr. Otternschlag\n\n   Video\n      Format : MPEG-4 Visual\n      Format settings, BVOP : Yes\n      Format settings, QPel : No\n      Format settings, GMC : No warppoints\n      Format settings, Matrix : Default\n      Codec ID : DX50\n      Codec ID/Hint : DivX 5\n      Duration : 1h 48mn\n      Bit rate : 806 Kbps\n      Width : 624 pixels\n      Height : 464 pixels\n      Display aspect ratio : 4/3\n      Frame rate : 25.000 fps\n      Resolution : 24 bits\n      Colorimetry : 4:2:0\n      Scan type : Progressive\n      Bits/(Pixel*Frame) : 0.111\n      Stream size : 622 MiB (89%)\n   Audio\n      Format : MPEG Audio\n      Format version : Version 1\n      Format profile : Layer 3\n      Codec ID : 55\n      Codec ID/Hint : MP3\n      Duration : 1h 47mn\n      Bit rate mode : Constant\n      Bit rate : 96.0 Kbps\n      Channel(s) : 2 channels\n      Sampling rate : 48.0 KHz\n      Resolution : 16 bits\n      Stream size : 74.2 MiB (11%)\n      Alignment : Split accross interleaves\n      Interleave, duration : 200 ms (5.00 video frames)\n\n  Enjoy  and  Seed\n","torrent":{"xt":"urn:btih:24fb17fbac350f153caec4443fb67a3e71c3d22b","amp;dn":"Grand+Hotel+%28Greta+Garbo%29+%281932%29.avi","amp;tr":["udp%3A%2F%2Ftracker.openbittorrent.com%3A80","udp%3A%2F%2Fopen.demonii.com%3A1337","udp%3A%2F%2Ftracker.coppersurfer.tk%3A6969","udp%3A%2F%2Fexodus.desync.com%3A6969"],"infoHash":"24fb17fbac350f153caec4443fb67a3e71c3d22b","infoHashBuffer":{"type":"Buffer","data":[36,251,23,251,172,53,15,21,60,174,196,68,63,182,122,62,113,195,210,43]},"announce":[],"urlList":[]}}